<svg xmlns="http://www.w3.org/2000/svg" width="168.47" height="63.566" viewBox="0 0 168.47 63.566">
    <g id="Group_1" data-name="Group 1" transform="translate(-83.912 -70.618)">
        <path id="Path_1" data-name="Path 1"
              d="M105.8,74.688V91.872H92.312V72.96L87.8,74.688V91.872H85.3L83.912,94.7H87.8v13.968l4.512-1.632V94.7H105.8v13.968l4.464-1.632V72.96Zm23.535,3.936a8.772,8.772,0,0,0-1.44,2.256,6.57,6.57,0,0,0-.432,2.5v6.96h3.84a12.419,12.419,0,0,0,4.032-.528,11.539,11.539,0,0,0,2.832-1.536l.72.72q-2.784,4.128-8.592,4.128h-2.832v9.36a12.4,12.4,0,0,1-1.152,5.808,13.256,13.256,0,0,1-3.7,4.128l-1.008-1.008a4.69,4.69,0,0,0,1.056-2.112,10.112,10.112,0,0,0,.336-2.544V93.12h-4.9l2.16-2.784H123V86.16a7.415,7.415,0,0,1,1.2-3.984,16.339,16.339,0,0,1,2.928-3.552l-6.624-.048a7,7,0,0,0-3.168.672,8.16,8.16,0,0,0-2.592,2.016l-.816-.72a19.121,19.121,0,0,1,4.992-4.512,10.416,10.416,0,0,1,5.424-1.584h8.208a57.5,57.5,0,0,0,6.432-.336,8.363,8.363,0,0,0,4.416-1.584l.48.528a13.2,13.2,0,0,1-4.224,3.936,9.872,9.872,0,0,1-5.088,1.632Zm27.458-5.568a13.1,13.1,0,0,1,6.1,1.488,13.343,13.343,0,0,1,4.848,4.128l-3.744,4.608a13.656,13.656,0,0,0-3.6-5.568,7.921,7.921,0,0,0-5.616-2.208,6.452,6.452,0,0,0-4.848,1.776,6.266,6.266,0,0,0-1.728,4.56,7.187,7.187,0,0,0,1.248,4.32,10.021,10.021,0,0,0,3.024,2.784,47.309,47.309,0,0,0,4.8,2.4,48.65,48.65,0,0,1,4.512,2.256,9.218,9.218,0,0,1,2.832,2.5,6.14,6.14,0,0,1,1.152,3.792,7.74,7.74,0,0,1-2.688,6.432,10.8,10.8,0,0,1-7.1,2.256,15.51,15.51,0,0,1-6.144-1.248,10.7,10.7,0,0,1-4.608-3.888l3.744-4.176a12.291,12.291,0,0,0,3.984,5.472,8.186,8.186,0,0,0,4.56,1.584,5.589,5.589,0,0,0,3.5-1.1,3.6,3.6,0,0,0,1.488-2.976,4.392,4.392,0,0,0-1.056-2.928,8.38,8.38,0,0,0-2.544-2.16,44.774,44.774,0,0,0-4.176-2.112,50.023,50.023,0,0,1-5.376-2.784,11.963,11.963,0,0,1-3.456-3.264A8.5,8.5,0,0,1,144.457,84a10.176,10.176,0,0,1,1.584-5.568,10.889,10.889,0,0,1,4.464-3.936A13.671,13.671,0,0,1,156.793,73.056Z"
              fill="#94d60a"/>
        <path id="Path_2" data-name="Path 2"
              d="M103.264,119h.512a2.533,2.533,0,0,1,1.856.592,2.284,2.284,0,0,1,.592,1.712,2.334,2.334,0,0,1-.384,1.264,1.942,1.942,0,0,1-.928.8,3.3,3.3,0,0,1,2.128,1.152,3.745,3.745,0,0,1,.752,2.432,4.228,4.228,0,0,1-.528,2.128,3.732,3.732,0,0,1-1.456,1.424,4.178,4.178,0,0,1-2.032.5h-.512Zm.64,4.224a1.713,1.713,0,0,0,1.3-.56,1.93,1.93,0,0,0,.528-1.376,1.906,1.906,0,0,0-.448-1.376,1.8,1.8,0,0,0-1.376-.464h-.128v3.776Zm0,7.328a3.226,3.226,0,0,0,2.928-1.728,3.755,3.755,0,0,0,.448-1.84,3.254,3.254,0,0,0-.88-2.48,3.419,3.419,0,0,0-2.5-.848h-.128v6.9Zm8.725.624a3.18,3.18,0,0,1-2.352-.832,3.219,3.219,0,0,1-.816-2.352V123.8h.512v4.192a2.822,2.822,0,0,0,.688,2.032,2.661,2.661,0,0,0,1.968.7,2.983,2.983,0,0,0,1.408-.336,2.605,2.605,0,0,0,1.008-.976,2.754,2.754,0,0,0,.368-1.424V123.8h.512V131h-.512v-1.344a2.882,2.882,0,0,1-1.1,1.1A3.36,3.36,0,0,1,112.629,131.176Zm8.053-.032a2.854,2.854,0,0,1-1.376-.336,2.64,2.64,0,0,1-.992-.976,2.682,2.682,0,0,1-.368-1.392V119h.512v9.44a2.193,2.193,0,0,0,1.1,1.968,2.243,2.243,0,0,0,1.12.288Zm1.654-12.112h.512V126.3l2.848-2.5h.656l-3.3,2.88,4.128,4.32H126.5l-3.648-3.84V131h-.512Zm6.256-.032h.528a4.092,4.092,0,0,1,2.944,1.008,3.49,3.49,0,0,1,1.056,2.672,4.178,4.178,0,0,1-.512,2.08,3.65,3.65,0,0,1-1.392,1.392,4.044,4.044,0,0,1-1.968.48h-.128V131h-.528Zm.688,7.168a3.293,3.293,0,0,0,2.384-.9,3.429,3.429,0,0,0,.928-2.56,3.149,3.149,0,0,0-.88-2.4,3.374,3.374,0,0,0-2.464-.848h-.128v6.7Zm8.042,5.008a3.724,3.724,0,0,1-1.9-.512,3.819,3.819,0,0,1-1.392-1.376,3.7,3.7,0,0,1-.512-1.888,3.611,3.611,0,0,1,.512-1.872,3.778,3.778,0,0,1,1.392-1.392,3.766,3.766,0,0,1,3.872.048,2.969,2.969,0,0,1,1.3,1.424V123.8h.512V131h-.512v-1.792a3.359,3.359,0,0,1-1.344,1.44A3.717,3.717,0,0,1,137.322,131.176Zm.032-.448a3.127,3.127,0,0,0,1.632-.448,3.4,3.4,0,0,0,1.184-1.216,3.285,3.285,0,0,0,0-3.312,3.371,3.371,0,0,0-1.2-1.216,3.052,3.052,0,0,0-1.632-.464,3.134,3.134,0,0,0-1.648.464,3.629,3.629,0,0,0-1.216,1.232,3.255,3.255,0,0,0,0,3.3,3.629,3.629,0,0,0,1.232,1.216A3.212,3.212,0,0,0,137.354,130.728Zm8.739,3.456a3.457,3.457,0,0,1-2.832-1.28v-.816a3.693,3.693,0,0,0,1.2,1.232,2.922,2.922,0,0,0,1.568.416,2.962,2.962,0,0,0,1.552-.384,2.488,2.488,0,0,0,.992-1.056,3.181,3.181,0,0,0,.336-1.472v-1.216a2.684,2.684,0,0,1-1.168,1.168,3.578,3.578,0,0,1-1.68.4,3.212,3.212,0,0,1-1.616-.4,2.865,2.865,0,0,1-1.1-1.12,3.484,3.484,0,0,1-.384-1.664V123.8h.512v4.192a2.989,2.989,0,0,0,.352,1.488,2.511,2.511,0,0,0,.96.928,2.687,2.687,0,0,0,1.3.32,2.865,2.865,0,0,0,1.424-.368,2.806,2.806,0,0,0,1.024-1.008,2.6,2.6,0,0,0,.384-1.36V123.8h.512v6.976a3.68,3.68,0,0,1-.4,1.728,2.876,2.876,0,0,1-1.136,1.232A3.432,3.432,0,0,1,146.093,134.184Z"
              fill="#0082cb"/>
        <path id="Path_3" data-name="Path 3"
              d="M217.031,72.469a6.32,6.32,0,0,1,8.938,0L250.531,97.03a6.322,6.322,0,0,1,0,8.939l-24.562,24.562a6.32,6.32,0,0,1-8.938,0l-24.562-24.562a6.32,6.32,0,0,1,0-8.938Z"
              fill="#94d60a"/>
        <path id="Path_4" data-name="Path 4"
              d="M231.848,99.865c-.3-.239-2.982-3.188-4.5-4.563-.007-.006-.007-.006-.007-.013V88.938a2.865,2.865,0,0,0-2.859-2.859h-9.365a2.668,2.668,0,0,0-2.659,2.659v14.9a2.865,2.865,0,0,0,2.859,2.859h3.415a.2.2,0,0,0,.2-.219l-.149-1.265a.2.2,0,0,0-.2-.174h-.406a.2.2,0,0,1-.2-.2V87.712c0,15.406.09-.2.2-.2H224.5a1.165,1.165,0,0,1,1.161,1.162V103.86a.977.977,0,0,1-.71.93h-.013a6.559,6.559,0,0,1-1.626-2.227.122.122,0,0,1-.019-.065c-.046-.406-.5-4.343-2.6-4.343a1.7,1.7,0,0,0-.175.006s-1.678.142-.29,4.925c0,.013.006.019.006.032l.614,5.3a.054.054,0,0,0,.006.026,12.141,12.141,0,0,0,2.549,4.821.2.2,0,0,1,.052.135v.459a.017.017,0,0,1-.019.019h-.162a.719.719,0,0,0-.716.716v1.865a.719.719,0,0,0,.716.717h7.6a.719.719,0,0,0,.716-.717v-1.852a.718.718,0,0,0-.716-.716.018.018,0,0,1-.02-.02c.252-2.336,1.156-10.326,1.64-10.952a.208.208,0,0,0,.032-.065C232.61,102.563,233.029,100.788,231.848,99.865Zm-16.4,4.783a.18.18,0,0,1-.181.18,1.151,1.151,0,0,1-1.149-1.148V88.661a1.151,1.151,0,0,1,1.149-1.149.181.181,0,0,1,.181.181v16.955Z"
              fill="#0082cb"/>
        <path id="Path_5" data-name="Path 5"
              d="M222.245,95.429v1.159h.488V95.376a2.369,2.369,0,0,0,.245-.06,1.871,1.871,0,0,0,.624-.289.5.5,0,0,0,.237-.369.377.377,0,0,0-.106-.281.336.336,0,0,0-.272-.114.364.364,0,0,0-.167.035,1.183,1.183,0,0,0-.149.105,1.581,1.581,0,0,1-.167.114,1.121,1.121,0,0,1-.245.088V91.464a.884.884,0,0,1,.2.068.916.916,0,0,1,.167.122c.076.053.135.091.176.115a.419.419,0,0,0,.184.035.307.307,0,0,0,.246-.114.428.428,0,0,0,.1-.273q0-.342-.466-.562a2.18,2.18,0,0,0-.6-.18V89.27h-.488v1.366h-.057a2.231,2.231,0,0,0-1.186.316,2.123,2.123,0,0,0-.807.861,2.542,2.542,0,0,0-.29,1.22,2.755,2.755,0,0,0,.272,1.23,2.157,2.157,0,0,0,.79.86,2.233,2.233,0,0,0,1.177.307Zm0-.771V91.409a1.531,1.531,0,0,0-.768.21,1.43,1.43,0,0,0-.545.589,1.749,1.749,0,0,0-.193.825,1.836,1.836,0,0,0,.184.834,1.444,1.444,0,0,0,1.318.791Z"
              fill="#0082cb" fill-rule="evenodd"/>
    </g>
</svg>
