<svg xmlns="http://www.w3.org/2000/svg" viewBox="0 0 692.386 215.6">
    <defs>
        <style>
            .cls-1 {
            fill: #05a1c8;
            }

            .cls-2 {
            fill: url(#linear-gradient);
            }

            .cls-3 {
            fill: #00a0c9;
            }

            .cls-4 {
            fill: #fff;
            }

            .cls-5 {
            fill: #009fc9;
            }

            .cls-6 {
            opacity: 0.47;
            fill: url(#linear-gradient-2);
            }

            .cls-7 {
            fill-rule: evenodd;
            }

            .cls-8 {
            fill: #999;
            }
        </style>
        <linearGradient id="linear-gradient" x1="0.03" y1="0.671" x2="0.97" y2="0.329"
                        gradientUnits="objectBoundingBox">
            <stop offset="0" stop-color="#d1ebf7"/>
            <stop offset="0.539" stop-color="#fdfeff"/>
            <stop offset="0.549" stop-color="#fff"/>
            <stop offset="0.615" stop-color="#f8fbfd"/>
            <stop offset="0.683" stop-color="#ebf2f7"/>
            <stop offset="0.752" stop-color="#d6e6f0"/>
            <stop offset="0.821" stop-color="#b9d7e8"/>
            <stop offset="0.891" stop-color="#93c5de"/>
            <stop offset="0.961" stop-color="#64b2d3"/>
            <stop offset="1" stop-color="#3ca7cc"/>
        </linearGradient>
        <linearGradient id="linear-gradient-2" x1="0.5" y1="1" x2="0.5" gradientUnits="objectBoundingBox">
            <stop offset="0" stop-color="#d1ebf7" stop-opacity="0.4"/>
            <stop offset="0.981" stop-color="#fdfeff" stop-opacity="0.988"/>
            <stop offset="1" stop-color="#fff"/>
        </linearGradient>
    </defs>
    <g id="Symbol_1_1" data-name="Symbol 1 – 1" transform="translate(-457.2 -128)">
        <g id="Group_8" data-name="Group 8" transform="translate(374 128)">
            <ellipse id="Ellipse_4" data-name="Ellipse 4" class="cls-1" cx="107.4" cy="107.8" rx="107.4" ry="107.8"
                     transform="translate(83.2 0)"/>
            <ellipse id="Ellipse_5" data-name="Ellipse 5" class="cls-2" cx="93.7" cy="93.6" rx="93.7" ry="93.6"
                     transform="translate(97.1 14)"/>
            <path id="Path_42" data-name="Path 42" class="cls-3"
                  d="M200.5,199.5c-45.5,0-82.6-36.7-82.6-81.9S155,35.7,200.5,35.7s82.6,36.7,82.6,81.9C283.1,162.7,246.1,199.5,200.5,199.5Zm0-153.8c-40,0-72.6,32.2-72.6,71.9,0,39.6,32.6,71.9,72.6,71.9s72.6-32.2,72.6-71.9S240.6,45.7,200.5,45.7Z"/>
            <g id="Group_6" data-name="Group 6">
                <ellipse id="Ellipse_6" data-name="Ellipse 6" class="cls-4" cx="58.5" cy="58.2" rx="58.5" ry="58.2"
                         transform="translate(154.6 71.1)"/>
                <path id="Path_43" data-name="Path 43" class="cls-5"
                      d="M213.1,191.1a61.7,61.7,0,1,1,62-61.7A61.926,61.926,0,0,1,213.1,191.1Zm0-116.5a54.7,54.7,0,1,0,55,54.7A54.905,54.905,0,0,0,213.1,74.6Z"/>
            </g>
            <g id="Group_7" data-name="Group 7">
                <ellipse id="Ellipse_7" data-name="Ellipse 7" class="cls-1" cx="3" cy="2.9" rx="3" ry="2.9"
                         transform="translate(183.9 158.7)"/>
                <path id="Path_44" data-name="Path 44" class="cls-1"
                      d="M189.6,160.3s5,13.9,26,10.1V91.2s-23.7-2-34.1,19.1c-.5,1.7-4,7.2-.5,18.9,0,0,4.6,13.2,20.9,11.7a21.007,21.007,0,0,0,8.1-3.1l1.2,3.7s-8.4,6.2-21.1,1.7a22.987,22.987,0,0,1-14.8-20.1c-.2-3.7-2.1-20.8,21-32.1,1.3-.4,32.3-13.6,52.4,13.3.7.9,15.9,24.3-.3,51.4-1,1.6-10.5,16.6-35.3,18.8-5.2,0-18.8,1-28.2-10.9Z"/>
                <circle id="Ellipse_8" data-name="Ellipse 8" class="cls-1" cx="2" cy="2" r="2"
                        transform="translate(208.6 137.5)"/>
            </g>
            <ellipse id="Ellipse_9" data-name="Ellipse 9" class="cls-6" cx="70.9" cy="48" rx="70.9" ry="48"
                     transform="translate(119.4 14)"/>
        </g>
        <path id="Path_45" data-name="Path 45" class="cls-7"
              d="M379.3,56.4c-6.1-6.3-13.8-9.4-23.2-9.4a36.915,36.915,0,0,0-23.2,8,29.25,29.25,0,0,0-11.6,24.1,25.126,25.126,0,0,0,8.3,19.2c5.5,5.1,12.8,7.6,21.9,7.6,8.6,0,17.5-3.6,26.6-10.8.1,13.6-4,24.2-12.3,32-7.8,7.2-17.7,10.7-29.6,10.4l4.5,8.1c15.4-3.9,27.3-10.9,35.6-21,8.7-10.4,13.1-23.4,13.1-39C389.4,73.2,386,63.4,379.3,56.4Zm-1.9,27.8c-.4,3.5-2.5,6.8-6.5,9.7a27.672,27.672,0,0,1-10.8,4.9,26.733,26.733,0,0,1-5.5.7c-6.6,0-12-2.8-16.2-8.3a28.331,28.331,0,0,1-5.7-17.6,20.151,20.151,0,0,1,4.6-13.1,19.636,19.636,0,0,1,9.4-6.8,20.02,20.02,0,0,1,6.4-1.1c6.6,0,12.4,2.8,17.2,8.3a29.53,29.53,0,0,1,7.2,19.9C377.5,82,377.5,83.1,377.4,84.2Z"
              transform="translate(374 128)"/>
        <g id="Group_9" data-name="Group 9" transform="translate(374 128)">
            <path id="Path_46" data-name="Path 46" class="cls-7"
                  d="M462.6,118.5c-.6,17.1-12.1,26-34.5,26.9a38.988,38.988,0,0,1-12.7-1.4,95.79,95.79,0,0,1-16.9-8l-1.4-11.5c10.9,11.1,21.4,16.4,31.4,16.1,7.2-.3,12.8-2.4,16.9-6.4,3.7-3.7,5.8-8.7,6.2-15,.4-6.1-3.9-11.8-12.7-17-8.3-4.4-16.5-8.9-24.8-13.3-8.9-5.7-13.3-12.2-13.1-19.3q.3-8.4,7.2-14.7c5.6-4.9,12.9-7.4,22-7.4a57.613,57.613,0,0,1,26.4,6.8l1.1,9.1c-8-7.5-17-11.3-27-11.3a18.674,18.674,0,0,0-13.4,5,15.376,15.376,0,0,0-5,11.8c.1,5.1,4.5,10,13.3,14.9,8.2,4.3,16.3,8.8,24.4,13.2,8.7,6,12.8,13.2,12.6,21.5Z"/>
            <path id="Path_47" data-name="Path 47" class="cls-7"
                  d="M528.7,136.2l-2.6,8H475.6c.9-2.3,1.4-6.8,1.4-13.6V62.4c0-6.8-.5-11.4-1.4-13.6h48.5l3.2,7.4c-3.5-1.3-7.9-1.9-13.4-1.9H487.6V85.5h34.3L520,91H487.5v47.7h28.4a34.171,34.171,0,0,0,12.8-2.5Z"/>
            <path id="Path_48" data-name="Path 48" class="cls-7"
                  d="M609.7,144.3H593.2A192.958,192.958,0,0,1,575.9,124c-1.4-1.9-7.8-11.4-19.3-28.5l1.1-1.5a56.241,56.241,0,0,0,13.1-.1,18.807,18.807,0,0,0,12.5-6.6,18.384,18.384,0,0,0,4.6-12.8,20.154,20.154,0,0,0-5-12.7,22.672,22.672,0,0,0-12.1-6.5c-3-.6-8.6-.9-16.7-.9v76.4c0,6.8.4,11.4,1.4,13.6H542.2c.9-2.3,1.4-6.8,1.4-13.6V62.4c0-6.8-.5-11.4-1.4-13.6h15c8.6,0,13.8.1,15.4.3,7.3.7,12.9,2.7,16.9,6,5.7,4.6,8.6,11,8.6,19,0,7.2-3,13.3-8.9,18.3a27.642,27.642,0,0,1-20.4,6.7c11.9,18.5,25.6,33.7,40.9,45.2Z"/>
            <path id="Path_49" data-name="Path 49" class="cls-7"
                  d="M629.4,144.3H616.1c.9-2.3,1.4-6.8,1.4-13.6V62.4c0-6.8-.5-11.4-1.4-13.6h13.3c-.9,2.3-1.4,6.8-1.4,13.6v68.2c.1,6.9.5,11.4,1.4,13.7Z"/>
            <path id="Path_50" data-name="Path 50" class="cls-7"
                  d="M701.9,136.2l-2.6,8H648.8c.9-2.3,1.4-6.8,1.4-13.6V62.4c0-6.8-.5-11.4-1.4-13.6h48.5l3.2,7.4c-3.5-1.3-7.9-1.9-13.4-1.9H660.8V85.5h34.3L693.3,91H660.8v47.7h28.4a34.428,34.428,0,0,0,12.7-2.5Z"/>
            <path id="Path_51" data-name="Path 51" class="cls-7"
                  d="M775.5,118.5c-.6,17.1-12.1,26-34.5,26.9a38.988,38.988,0,0,1-12.7-1.4,95.79,95.79,0,0,1-16.9-8L710,124.5c10.9,11.1,21.4,16.4,31.4,16.1,7.2-.3,12.8-2.4,16.9-6.4,3.7-3.7,5.8-8.7,6.2-15,.4-6.1-3.9-11.8-12.7-17-8.3-4.4-16.5-8.9-24.8-13.3-8.9-5.7-13.3-12.2-13.1-19.3q.3-8.4,7.2-14.7c5.6-4.9,12.9-7.4,22-7.4a57.613,57.613,0,0,1,26.4,6.8l1.1,9.1c-8-7.5-17-11.3-27-11.3a18.674,18.674,0,0,0-13.4,5,15.376,15.376,0,0,0-5,11.8c.1,5.1,4.5,10,13.3,14.9,8.2,4.3,16.3,8.8,24.4,13.2C771.6,103,775.8,110.2,775.5,118.5Z"/>
        </g>
        <path id="Path_86" data-name="Path 86" class="cls-8"
              d="M17.487,0H14.874l2.081-9.83H5.819L3.768,0H1.124l4.6-21.787H8.371L6.32-12.23H17.457l2.051-9.556h2.613ZM35.779-4.983q-.122.577-.235,1.3t-.2,1.428q-.084.706-.137,1.314T35.156,0H32.574q.015-.3.046-.729T32.7-1.61q.053-.456.106-.9t.114-.76h-.061q-.471.744-.957,1.405A6.764,6.764,0,0,1,30.826-.7,4.723,4.723,0,0,1,29.5.091,4.652,4.652,0,0,1,27.788.38,4.64,4.64,0,0,1,25.927.015a3.9,3.9,0,0,1-1.451-1.086,5.006,5.006,0,0,1-.934-1.808,8.813,8.813,0,0,1-.327-2.53A12.675,12.675,0,0,1,23.4-7.414a12.27,12.27,0,0,1,.615-2.294,11.681,11.681,0,0,1,1.155-2.287,8.683,8.683,0,0,1,1.793-2,8.552,8.552,0,0,1,2.53-1.413,9.823,9.823,0,0,1,3.373-.532,17.931,17.931,0,0,1,2.507.182q1.291.182,2.568.441Zm-.714-8.523q-.532-.122-1.246-.213a10.592,10.592,0,0,0-1.337-.091,6.065,6.065,0,0,0-2.332.418A5.984,5.984,0,0,0,28.4-12.3a6.442,6.442,0,0,0-1.253,1.557,9.655,9.655,0,0,0-.813,1.8A10.6,10.6,0,0,0,25.9-7.125,11.493,11.493,0,0,0,25.767-5.5a7.281,7.281,0,0,0,.152,1.557A3.4,3.4,0,0,0,26.4-2.765a2.247,2.247,0,0,0,.836.752,2.576,2.576,0,0,0,1.208.266,3.29,3.29,0,0,0,1.421-.311A4.924,4.924,0,0,0,31.1-2.9a6.923,6.923,0,0,0,1.048-1.231A12.106,12.106,0,0,0,33-5.614a12.669,12.669,0,0,0,.646-1.6q.266-.813.433-1.572Zm19.72,1.838a4.952,4.952,0,0,1-.053.623q-.053.4-.137.851t-.167.9q-.084.448-.16.767L52.461,0H49.939l1.9-9.116q.061-.243.122-.562t.106-.638q.046-.319.076-.585a3.908,3.908,0,0,0,.03-.418,2.77,2.77,0,0,0-.555-1.823,2.019,2.019,0,0,0-1.648-.668,3.834,3.834,0,0,0-1.99.593,8.188,8.188,0,0,0-1.823,1.5A10.257,10.257,0,0,0,44.72-9.708,7.684,7.684,0,0,0,43.908-7.6L42.282,0H39.76l2.4-11.106q.122-.593.243-1.238t.228-1.246q.106-.6.182-1.117t.122-.851h2.431q-.076.593-.182,1.238T45-13.127q-.091.638-.2,1.246h.061a12.848,12.848,0,0,1,1.177-1.572,8.811,8.811,0,0,1,1.4-1.291,6.638,6.638,0,0,1,1.6-.874,4.959,4.959,0,0,1,1.77-.319,4.593,4.593,0,0,1,1.778.311,3.329,3.329,0,0,1,1.238.874A3.557,3.557,0,0,1,54.55-13.4,6.044,6.044,0,0,1,54.786-11.668ZM70.07-4.786q-.106.486-.205,1.17T69.69-2.241q-.076.691-.129,1.3T69.508,0H66.925q0-.258.038-.691t.091-.9q.053-.471.114-.9t.106-.706h-.061A15.345,15.345,0,0,1,66.12-1.648,6.332,6.332,0,0,1,64.965-.524a4.639,4.639,0,0,1-1.291.676,4.733,4.733,0,0,1-1.5.228A4.647,4.647,0,0,1,60.255,0,3.9,3.9,0,0,1,58.8-1.117a5.146,5.146,0,0,1-.919-1.823,8.886,8.886,0,0,1-.319-2.5,12.3,12.3,0,0,1,.235-2.34,11.982,11.982,0,0,1,.729-2.385,11.179,11.179,0,0,1,1.253-2.218,8.64,8.64,0,0,1,1.808-1.838,8.573,8.573,0,0,1,2.4-1.253,9.287,9.287,0,0,1,3.023-.463,10.254,10.254,0,0,1,1.58.114q.729.114,1.261.235l1.58-7.445H73.9Zm-.653-8.66a9.787,9.787,0,0,0-1.208-.266,8.694,8.694,0,0,0-1.345-.1,6.164,6.164,0,0,0-2.332.41,5.881,5.881,0,0,0-1.762,1.094,6.548,6.548,0,0,0-1.261,1.557,9.812,9.812,0,0,0-.82,1.793,10.206,10.206,0,0,0-.441,1.808,11.25,11.25,0,0,0-.129,1.6A7.68,7.68,0,0,0,60.263-4a3.46,3.46,0,0,0,.471,1.2,2.25,2.25,0,0,0,.843.775,2.632,2.632,0,0,0,1.246.273,3.225,3.225,0,0,0,1.421-.319,4.892,4.892,0,0,0,1.238-.866A7.15,7.15,0,0,0,66.53-4.193a12.233,12.233,0,0,0,.851-1.519,13.5,13.5,0,0,0,.646-1.633q.266-.828.433-1.588Zm16.955.972a5.719,5.719,0,0,0-1.542-.95,5.02,5.02,0,0,0-2-.387,4.719,4.719,0,0,0-1.892.365,5.22,5.22,0,0,0-1.5.972,6.308,6.308,0,0,0-1.124,1.4,9.319,9.319,0,0,0-.775,1.641A10.1,10.1,0,0,0,77.1-7.741a9.354,9.354,0,0,0-.144,1.572,4.962,4.962,0,0,0,.957,3.3,3.252,3.252,0,0,0,2.613,1.124A5.751,5.751,0,0,0,82.6-2.165,10.018,10.018,0,0,0,84.64-3.236L84.108-.744a10.662,10.662,0,0,1-1.967.828,7.129,7.129,0,0,1-2.074.3,5.891,5.891,0,0,1-2.484-.486,4.867,4.867,0,0,1-1.755-1.337A5.729,5.729,0,0,1,74.78-3.456a8.7,8.7,0,0,1-.349-2.514,12.281,12.281,0,0,1,.258-2.514,10.829,10.829,0,0,1,.767-2.34,10.148,10.148,0,0,1,1.253-2.043,8.082,8.082,0,0,1,1.709-1.618,8.113,8.113,0,0,1,2.15-1.064,8.218,8.218,0,0,1,2.568-.387,8.191,8.191,0,0,1,1.246.091,7.394,7.394,0,0,1,1.079.243,7.267,7.267,0,0,1,.866.327,3.556,3.556,0,0,1,.608.342Zm12.078-.441h-.061a4.485,4.485,0,0,0-.8-.357,2.923,2.923,0,0,0-.98-.175,2.877,2.877,0,0,0-1.686.57,6.2,6.2,0,0,0-1.466,1.5A10.791,10.791,0,0,0,92.3-9.237a14.579,14.579,0,0,0-.767,2.461L90.079,0H87.587l2.188-10.331q.137-.638.273-1.337t.251-1.4q.114-.7.205-1.337t.137-1.155H93.1q-.046.456-.106.965t-.122.988q-.061.479-.122.866t-.091.6h.061A16.769,16.769,0,0,1,93.71-13.7,7.23,7.23,0,0,1,94.766-14.9a4.476,4.476,0,0,1,1.177-.767,3.326,3.326,0,0,1,1.352-.273,4.289,4.289,0,0,1,.843.084q.418.084.752.175Zm12.944,7.931q-.122.577-.235,1.3t-.2,1.428q-.084.706-.137,1.314T110.772,0h-2.583q.015-.3.046-.729t.084-.881q.053-.456.106-.9t.114-.76h-.061q-.471.744-.957,1.405A6.764,6.764,0,0,1,106.442-.7a4.723,4.723,0,0,1-1.322.79A4.652,4.652,0,0,1,103.4.38a4.64,4.64,0,0,1-1.861-.365,3.9,3.9,0,0,1-1.451-1.086,5.006,5.006,0,0,1-.934-1.808,8.813,8.813,0,0,1-.327-2.53,12.675,12.675,0,0,1,.182-2.005,12.27,12.27,0,0,1,.615-2.294,11.681,11.681,0,0,1,1.155-2.287,8.684,8.684,0,0,1,1.793-2,8.552,8.552,0,0,1,2.53-1.413,9.823,9.823,0,0,1,3.373-.532,17.931,17.931,0,0,1,2.507.182q1.291.182,2.568.441Zm-.714-8.523q-.532-.122-1.246-.213a10.592,10.592,0,0,0-1.337-.091,6.065,6.065,0,0,0-2.332.418,5.984,5.984,0,0,0-1.755,1.094,6.442,6.442,0,0,0-1.253,1.557,9.655,9.655,0,0,0-.813,1.8,10.6,10.6,0,0,0-.433,1.816,11.493,11.493,0,0,0-.129,1.626,7.281,7.281,0,0,0,.152,1.557,3.4,3.4,0,0,0,.479,1.177,2.247,2.247,0,0,0,.836.752,2.576,2.576,0,0,0,1.208.266,3.29,3.29,0,0,0,1.421-.311,4.924,4.924,0,0,0,1.238-.843,6.923,6.923,0,0,0,1.048-1.231,12.107,12.107,0,0,0,.851-1.481,12.67,12.67,0,0,0,.646-1.6q.266-.813.433-1.572Zm16.332-7.369a2.6,2.6,0,0,0-.365-.144q-.213-.068-.456-.129a5.033,5.033,0,0,0-.509-.1,3.6,3.6,0,0,0-.509-.038,2.36,2.36,0,0,0-1.922.813,5.663,5.663,0,0,0-1.026,2.423l-.562,2.492h3.677l-.5,2.112h-3.677L117.183,5.166h-2.522l4.011-18.611H116l.471-2.112h2.674l.623-2.887a8.443,8.443,0,0,1,.805-2.279,5.23,5.23,0,0,1,1.231-1.534,4.586,4.586,0,0,1,1.618-.866A6.824,6.824,0,0,1,125.4-23.4a6.6,6.6,0,0,1,1.1.091,6.754,6.754,0,0,1,.919.213Zm7.931,7.429h-3.92L129.277-5.2q-.091.471-.182,1.018A5.624,5.624,0,0,0,129-3.3a1.535,1.535,0,0,0,.342,1.117,1.486,1.486,0,0,0,1.086.342A2.388,2.388,0,0,0,130.9-1.9q.289-.061.593-.152t.6-.205q.3-.114.524-.205l-.471,2.188a7.366,7.366,0,0,1-1.208.387,5.6,5.6,0,0,1-1.284.16,4.344,4.344,0,0,1-1.474-.22,2.525,2.525,0,0,1-1-.631,2.442,2.442,0,0,1-.562-1,4.587,4.587,0,0,1-.175-1.314,7.366,7.366,0,0,1,.084-1.026,10.629,10.629,0,0,1,.205-1.071l1.793-8.462h-2.583l.471-2.112h2.552l.805-3.8a4.682,4.682,0,0,1,.463-.144q.4-.114.881-.258l.881-.266.448-.137-.957,4.6h3.92Zm14.16,1.534a4.63,4.63,0,0,1-.547,2.241,4.533,4.533,0,0,1-1.808,1.732,10.86,10.86,0,0,1-3.327,1.117,28.544,28.544,0,0,1-5.1.41,1.952,1.952,0,0,0-.03.349v.3a5.167,5.167,0,0,0,.228,1.55,3.5,3.5,0,0,0,.706,1.276,3.334,3.334,0,0,0,1.231.866,4.552,4.552,0,0,0,1.785.319,7.577,7.577,0,0,0,2.3-.4A9.892,9.892,0,0,0,146.931-3.3L146.46-.836a9.875,9.875,0,0,1-1.99.851,8.555,8.555,0,0,1-2.583.365,7.019,7.019,0,0,1-2.894-.532,5.1,5.1,0,0,1-1.9-1.421,5.538,5.538,0,0,1-1.041-2.051,9.171,9.171,0,0,1-.319-2.438,11.278,11.278,0,0,1,.3-2.636,10.733,10.733,0,0,1,.858-2.362,10.012,10.012,0,0,1,1.329-2,8.641,8.641,0,0,1,1.717-1.542,7.959,7.959,0,0,1,2.021-.988,7.2,7.2,0,0,1,2.233-.349,6.454,6.454,0,0,1,2.119.319,4.428,4.428,0,0,1,1.534.874,3.725,3.725,0,0,1,.934,1.284A3.824,3.824,0,0,1,149.1-11.911Zm-2.537.122a1.756,1.756,0,0,0-.706-1.489,3.044,3.044,0,0,0-1.876-.532,4.207,4.207,0,0,0-1.793.4,5.8,5.8,0,0,0-1.6,1.109,6.923,6.923,0,0,0-1.261,1.686,7.853,7.853,0,0,0-.775,2.119,26.26,26.26,0,0,0,3.692-.22,9.578,9.578,0,0,0,2.476-.646,3.329,3.329,0,0,0,1.4-1.041A2.33,2.33,0,0,0,146.566-11.79Zm16.819,7q-.106.486-.205,1.17T163-2.241q-.076.691-.129,1.3T162.823,0H160.24q0-.258.038-.691t.091-.9q.053-.471.114-.9t.106-.706h-.061a15.342,15.342,0,0,1-1.094,1.557A6.332,6.332,0,0,1,158.28-.524a4.639,4.639,0,0,1-1.291.676,4.733,4.733,0,0,1-1.5.228A4.647,4.647,0,0,1,153.57,0a3.9,3.9,0,0,1-1.451-1.117A5.146,5.146,0,0,1,151.2-2.94a8.886,8.886,0,0,1-.319-2.5,12.3,12.3,0,0,1,.235-2.34,11.982,11.982,0,0,1,.729-2.385,11.179,11.179,0,0,1,1.253-2.218,8.64,8.64,0,0,1,1.808-1.838,8.573,8.573,0,0,1,2.4-1.253,9.287,9.287,0,0,1,3.023-.463,10.254,10.254,0,0,1,1.58.114q.729.114,1.261.235l1.58-7.445h2.461Zm-.653-8.66a9.787,9.787,0,0,0-1.208-.266,8.694,8.694,0,0,0-1.345-.1,6.164,6.164,0,0,0-2.332.41,5.881,5.881,0,0,0-1.762,1.094,6.548,6.548,0,0,0-1.261,1.557A9.812,9.812,0,0,0,154-8.956a10.208,10.208,0,0,0-.441,1.808,11.251,11.251,0,0,0-.129,1.6A7.68,7.68,0,0,0,153.578-4a3.46,3.46,0,0,0,.471,1.2,2.25,2.25,0,0,0,.843.775,2.632,2.632,0,0,0,1.246.273,3.225,3.225,0,0,0,1.421-.319,4.892,4.892,0,0,0,1.238-.866,7.149,7.149,0,0,0,1.048-1.261,12.233,12.233,0,0,0,.851-1.519,13.5,13.5,0,0,0,.646-1.633q.266-.828.433-1.588Zm30.462-6.032h-6.2L182.892,0h-2.613l4.132-19.477h-6.335l.486-2.309h15.132Zm10.043,7.566a4.63,4.63,0,0,1-.547,2.241,4.533,4.533,0,0,1-1.808,1.732,10.86,10.86,0,0,1-3.327,1.117,28.544,28.544,0,0,1-5.1.41,1.952,1.952,0,0,0-.03.349v.3a5.167,5.167,0,0,0,.228,1.55,3.5,3.5,0,0,0,.706,1.276,3.334,3.334,0,0,0,1.231.866,4.552,4.552,0,0,0,1.785.319,7.577,7.577,0,0,0,2.3-.4A9.892,9.892,0,0,0,201.063-3.3l-.471,2.461a9.875,9.875,0,0,1-1.99.851,8.555,8.555,0,0,1-2.583.365,7.019,7.019,0,0,1-2.894-.532,5.1,5.1,0,0,1-1.9-1.421,5.538,5.538,0,0,1-1.041-2.051,9.171,9.171,0,0,1-.319-2.438,11.278,11.278,0,0,1,.3-2.636,10.733,10.733,0,0,1,.858-2.362,10.013,10.013,0,0,1,1.329-2,8.641,8.641,0,0,1,1.717-1.542,7.959,7.959,0,0,1,2.021-.988,7.2,7.2,0,0,1,2.233-.349,6.454,6.454,0,0,1,2.119.319,4.428,4.428,0,0,1,1.534.874,3.725,3.725,0,0,1,.934,1.284A3.824,3.824,0,0,1,203.236-11.911Zm-2.537.122a1.756,1.756,0,0,0-.706-1.489,3.044,3.044,0,0,0-1.876-.532,4.207,4.207,0,0,0-1.793.4,5.8,5.8,0,0,0-1.6,1.109,6.923,6.923,0,0,0-1.261,1.686,7.853,7.853,0,0,0-.775,2.119,26.26,26.26,0,0,0,3.692-.22,9.578,9.578,0,0,0,2.476-.646,3.329,3.329,0,0,0,1.4-1.041A2.33,2.33,0,0,0,200.7-11.79Zm16.256-.684a5.718,5.718,0,0,0-1.542-.95,5.02,5.02,0,0,0-2-.387,4.719,4.719,0,0,0-1.892.365,5.22,5.22,0,0,0-1.5.972,6.308,6.308,0,0,0-1.124,1.4,9.32,9.32,0,0,0-.775,1.641,10.1,10.1,0,0,0-.448,1.694,9.354,9.354,0,0,0-.144,1.572,4.962,4.962,0,0,0,.957,3.3,3.252,3.252,0,0,0,2.613,1.124,5.751,5.751,0,0,0,2.081-.418,10.018,10.018,0,0,0,2.036-1.071l-.532,2.492a10.662,10.662,0,0,1-1.967.828,7.129,7.129,0,0,1-2.074.3,5.891,5.891,0,0,1-2.484-.486,4.868,4.868,0,0,1-1.755-1.337,5.729,5.729,0,0,1-1.048-2.013,8.7,8.7,0,0,1-.349-2.514,12.28,12.28,0,0,1,.258-2.514,10.83,10.83,0,0,1,.767-2.34,10.148,10.148,0,0,1,1.253-2.043A8.082,8.082,0,0,1,209-14.486a8.113,8.113,0,0,1,2.15-1.064,8.218,8.218,0,0,1,2.568-.387,8.191,8.191,0,0,1,1.246.091,7.394,7.394,0,0,1,1.079.243,7.268,7.268,0,0,1,.866.327,3.557,3.557,0,0,1,.608.342Zm16.18.836a5.054,5.054,0,0,1-.053.6q-.053.4-.122.858t-.152.9q-.084.448-.16.752L230.841,0h-2.522l1.9-9.116q.061-.243.122-.562t.106-.638q.046-.319.076-.585a3.906,3.906,0,0,0,.03-.418,2.811,2.811,0,0,0-.539-1.838,2.033,2.033,0,0,0-1.664-.653,3.818,3.818,0,0,0-1.945.57,7.913,7.913,0,0,0-1.808,1.474,10.248,10.248,0,0,0-1.451,2.021,8.335,8.335,0,0,0-.858,2.211L220.662,0H218.14l4.923-23.032h2.492l-2.37,11.121h.061a12.545,12.545,0,0,1,1.231-1.6A9.014,9.014,0,0,1,225.9-14.79a6.615,6.615,0,0,1,1.58-.843,4.923,4.923,0,0,1,1.709-.3,3.7,3.7,0,0,1,2.947,1.147A4.627,4.627,0,0,1,233.135-11.638Zm17.487-.03a4.952,4.952,0,0,1-.053.623q-.053.4-.137.851t-.167.9q-.084.448-.16.767L248.3,0h-2.522l1.9-9.116q.061-.243.122-.562t.106-.638q.046-.319.076-.585a3.91,3.91,0,0,0,.03-.418,2.77,2.77,0,0,0-.555-1.823,2.019,2.019,0,0,0-1.648-.668,3.834,3.834,0,0,0-1.99.593,8.188,8.188,0,0,0-1.823,1.5,10.257,10.257,0,0,0-1.436,2.005,7.684,7.684,0,0,0-.813,2.112L238.119,0H235.6L238-11.106q.122-.593.243-1.238t.228-1.246q.106-.6.182-1.117t.122-.851H241.2q-.076.593-.182,1.238t-.182,1.193q-.091.638-.2,1.246h.061a12.847,12.847,0,0,1,1.177-1.572,8.811,8.811,0,0,1,1.4-1.291,6.638,6.638,0,0,1,1.6-.874,4.959,4.959,0,0,1,1.77-.319,4.593,4.593,0,0,1,1.778.311,3.329,3.329,0,0,1,1.238.874,3.557,3.557,0,0,1,.729,1.352A6.043,6.043,0,0,1,250.622-11.668ZM267.684-9.8a12.949,12.949,0,0,1-.585,3.92,10.022,10.022,0,0,1-1.686,3.244,8.148,8.148,0,0,1-2.674,2.2,7.611,7.611,0,0,1-3.548.813,6.476,6.476,0,0,1-2.408-.425,5.01,5.01,0,0,1-1.823-1.223,5.418,5.418,0,0,1-1.155-1.93,7.608,7.608,0,0,1-.4-2.56,12.678,12.678,0,0,1,.615-4A10.11,10.11,0,0,1,255.75-13a8.092,8.092,0,0,1,2.674-2.157,7.555,7.555,0,0,1,3.441-.782,6.433,6.433,0,0,1,2.393.425,5.083,5.083,0,0,1,1.831,1.223,5.538,5.538,0,0,1,1.177,1.93A7.356,7.356,0,0,1,267.684-9.8Zm-2.552.122a5.808,5.808,0,0,0-.243-1.755,3.732,3.732,0,0,0-.684-1.291,2.966,2.966,0,0,0-1.064-.805,3.362,3.362,0,0,0-1.4-.281,4.418,4.418,0,0,0-2.416.684,6.113,6.113,0,0,0-1.823,1.8,8.927,8.927,0,0,0-1.147,2.537,10.619,10.619,0,0,0-.4,2.909,5.811,5.811,0,0,0,.235,1.709,3.881,3.881,0,0,0,.668,1.307,2.886,2.886,0,0,0,1.064.828,3.374,3.374,0,0,0,1.421.289,4.482,4.482,0,0,0,2.431-.676A6.027,6.027,0,0,0,263.6-4.216a8.762,8.762,0,0,0,1.139-2.545A10.893,10.893,0,0,0,265.132-9.678ZM275.189-.061a5.822,5.822,0,0,1-.858.2,6.049,6.049,0,0,1-.95.076,3.1,3.1,0,0,1-2.294-.767,2.8,2.8,0,0,1-.76-2.059,6.278,6.278,0,0,1,.076-.9q.076-.517.243-1.276l3.889-18.262h2.522l-3.9,18.323q-.137.638-.19.988a4.045,4.045,0,0,0-.053.593,1.252,1.252,0,0,0,.342.95,1.531,1.531,0,0,0,1.086.327,4.6,4.6,0,0,0,.691-.046,3.062,3.062,0,0,0,.555-.137Zm17.2-9.739a12.949,12.949,0,0,1-.585,3.92,10.022,10.022,0,0,1-1.686,3.244,8.148,8.148,0,0,1-2.674,2.2,7.611,7.611,0,0,1-3.548.813,6.476,6.476,0,0,1-2.408-.425,5.01,5.01,0,0,1-1.823-1.223,5.418,5.418,0,0,1-1.155-1.93,7.608,7.608,0,0,1-.4-2.56,12.678,12.678,0,0,1,.615-4A10.11,10.11,0,0,1,280.454-13a8.092,8.092,0,0,1,2.674-2.157,7.555,7.555,0,0,1,3.441-.782,6.433,6.433,0,0,1,2.393.425,5.083,5.083,0,0,1,1.831,1.223,5.538,5.538,0,0,1,1.177,1.93A7.356,7.356,0,0,1,292.388-9.8Zm-2.552.122a5.809,5.809,0,0,0-.243-1.755,3.733,3.733,0,0,0-.684-1.291,2.966,2.966,0,0,0-1.064-.805,3.361,3.361,0,0,0-1.4-.281,4.418,4.418,0,0,0-2.416.684,6.113,6.113,0,0,0-1.823,1.8,8.927,8.927,0,0,0-1.147,2.537,10.619,10.619,0,0,0-.4,2.909,5.81,5.81,0,0,0,.236,1.709,3.881,3.881,0,0,0,.668,1.307,2.886,2.886,0,0,0,1.064.828,3.374,3.374,0,0,0,1.421.289,4.482,4.482,0,0,0,2.431-.676A6.027,6.027,0,0,0,288.3-4.216a8.762,8.762,0,0,0,1.139-2.545A10.893,10.893,0,0,0,289.835-9.678Zm16.651,8.554a19.707,19.707,0,0,1-1,3.365,8.908,8.908,0,0,1-1.648,2.674,7.022,7.022,0,0,1-2.53,1.762,9.469,9.469,0,0,1-3.661.631,8.6,8.6,0,0,1-2.59-.349,11.945,11.945,0,0,1-2.013-.836l.471-2.325a11.761,11.761,0,0,0,2.036.972,6.709,6.709,0,0,0,2.325.4,6.346,6.346,0,0,0,2.347-.4,4.714,4.714,0,0,0,1.717-1.162,6.418,6.418,0,0,0,1.2-1.876,14.267,14.267,0,0,0,.8-2.537l.532-2.431h-.061a15.25,15.25,0,0,1-1.132,1.6,6.528,6.528,0,0,1-1.162,1.124,4.538,4.538,0,0,1-1.276.668,4.687,4.687,0,0,1-1.474.22,4.69,4.69,0,0,1-1.9-.372,3.86,3.86,0,0,1-1.451-1.1,5.152,5.152,0,0,1-.927-1.823,8.832,8.832,0,0,1-.327-2.522,11.986,11.986,0,0,1,.3-2.659,11.637,11.637,0,0,1,.858-2.476,10.425,10.425,0,0,1,1.375-2.15,9.145,9.145,0,0,1,1.846-1.694,8.7,8.7,0,0,1,2.271-1.117,8.523,8.523,0,0,1,2.651-.4,22.06,22.06,0,0,1,2.826.182q1.413.182,2.6.41Zm.122-12.382a12.019,12.019,0,0,0-1.253-.213,12.826,12.826,0,0,0-1.572-.091,5.274,5.274,0,0,0-2.613.661,6.558,6.558,0,0,0-2.043,1.793,8.671,8.671,0,0,0-1.337,2.636,10.41,10.41,0,0,0-.479,3.175,7.515,7.515,0,0,0,.144,1.519,3.661,3.661,0,0,0,.456,1.2,2.311,2.311,0,0,0,.805.79,2.357,2.357,0,0,0,1.208.289,3.43,3.43,0,0,0,1.542-.349,5.089,5.089,0,0,0,1.3-.927,7.108,7.108,0,0,0,1.056-1.314,13.27,13.27,0,0,0,.82-1.512,13.781,13.781,0,0,0,.6-1.527q.243-.752.38-1.36Zm9.4,16.089A18.3,18.3,0,0,1,314.6,4.6a9.371,9.371,0,0,1-1.5,1.481,5.663,5.663,0,0,1-3.624,1.231,5.062,5.062,0,0,1-.782-.068,5.7,5.7,0,0,1-.691-.144l.471-2.2a2.248,2.248,0,0,0,.593.2,3.5,3.5,0,0,0,.714.076,3.271,3.271,0,0,0,1.892-.577,5.882,5.882,0,0,0,1.588-1.762l1.869-2.887-2.826-15.5h2.583L316.7-3.616a5.84,5.84,0,0,1,.053.646,3.5,3.5,0,0,1-.023.539h.091q.076-.182.236-.517a5.576,5.576,0,0,1,.357-.638l6.9-11.972h2.75Zm33.09-21.1a5.527,5.527,0,0,0-.9-.517,8.635,8.635,0,0,0-1.124-.425,9.633,9.633,0,0,0-1.253-.289,8.027,8.027,0,0,0-1.291-.106,5.369,5.369,0,0,0-2.043.342,3.832,3.832,0,0,0-1.329.866,3.2,3.2,0,0,0-.722,1.147,3.518,3.518,0,0,0-.22,1.17,3.973,3.973,0,0,0,.2,1.291,4.063,4.063,0,0,0,.592,1.109,6.583,6.583,0,0,0,1.018,1.064q.623.532,1.459,1.139a19.875,19.875,0,0,1,1.679,1.352A9.2,9.2,0,0,1,346.414-9a5.529,5.529,0,0,1,.782,1.489,5.233,5.233,0,0,1,.266,1.694,7.5,7.5,0,0,1-.114,1.238,5.871,5.871,0,0,1-.41,1.36,6.02,6.02,0,0,1-.813,1.337,5.139,5.139,0,0,1-1.314,1.155,7.059,7.059,0,0,1-1.922.805,10.2,10.2,0,0,1-2.644.3,11.389,11.389,0,0,1-1.671-.122,13.86,13.86,0,0,1-1.557-.319,11.435,11.435,0,0,1-1.352-.448A10.083,10.083,0,0,1,334.609-1l.441-2.644a8.12,8.12,0,0,0,1.109.661,10.319,10.319,0,0,0,1.322.547,10.394,10.394,0,0,0,1.443.372,8.145,8.145,0,0,0,1.474.137A6.355,6.355,0,0,0,342.38-2.2a3.85,3.85,0,0,0,1.367-.752,2.872,2.872,0,0,0,.79-1.132,3.911,3.911,0,0,0,.251-1.413,3.372,3.372,0,0,0-.213-1.231,3.833,3.833,0,0,0-.653-1.071,7.846,7.846,0,0,0-1.117-1.064q-.676-.539-1.6-1.193a15.45,15.45,0,0,1-1.421-1.147,8.026,8.026,0,0,1-1.185-1.345,6.417,6.417,0,0,1-.805-1.588A5.668,5.668,0,0,1,337.5-16a6.1,6.1,0,0,1,.463-2.362,5.535,5.535,0,0,1,1.375-1.96,6.652,6.652,0,0,1,2.256-1.337,9.038,9.038,0,0,1,3.122-.494,11.075,11.075,0,0,1,1.36.084q.676.084,1.314.228t1.208.319q.57.175,1.01.357ZM364.98-9.8a12.949,12.949,0,0,1-.585,3.92,10.022,10.022,0,0,1-1.686,3.244,8.148,8.148,0,0,1-2.674,2.2,7.611,7.611,0,0,1-3.548.813,6.476,6.476,0,0,1-2.408-.425,5.01,5.01,0,0,1-1.823-1.223A5.418,5.418,0,0,1,351.1-3.2a7.608,7.608,0,0,1-.4-2.56,12.678,12.678,0,0,1,.615-4A10.11,10.11,0,0,1,353.045-13a8.092,8.092,0,0,1,2.674-2.157,7.555,7.555,0,0,1,3.441-.782,6.433,6.433,0,0,1,2.393.425,5.083,5.083,0,0,1,1.831,1.223,5.538,5.538,0,0,1,1.177,1.93A7.356,7.356,0,0,1,364.98-9.8Zm-2.552.122a5.809,5.809,0,0,0-.243-1.755,3.733,3.733,0,0,0-.684-1.291,2.966,2.966,0,0,0-1.064-.805,3.361,3.361,0,0,0-1.4-.281,4.418,4.418,0,0,0-2.416.684,6.113,6.113,0,0,0-1.823,1.8,8.927,8.927,0,0,0-1.147,2.537,10.619,10.619,0,0,0-.4,2.909,5.81,5.81,0,0,0,.236,1.709,3.881,3.881,0,0,0,.668,1.307,2.886,2.886,0,0,0,1.064.828,3.374,3.374,0,0,0,1.421.289,4.482,4.482,0,0,0,2.431-.676,6.027,6.027,0,0,0,1.823-1.793,8.762,8.762,0,0,0,1.139-2.545A10.893,10.893,0,0,0,362.427-9.678ZM372.485-.061a5.822,5.822,0,0,1-.858.2,6.049,6.049,0,0,1-.95.076,3.1,3.1,0,0,1-2.294-.767,2.8,2.8,0,0,1-.76-2.059,6.278,6.278,0,0,1,.076-.9q.076-.517.243-1.276l3.889-18.262h2.522l-3.9,18.323q-.137.638-.19.988a4.045,4.045,0,0,0-.053.593,1.252,1.252,0,0,0,.342.95,1.531,1.531,0,0,0,1.086.327,4.6,4.6,0,0,0,.691-.046,3.062,3.062,0,0,0,.555-.137Zm15.861-4.36q-.137.593-.251,1.231t-.22,1.231q-.106.593-.182,1.109T387.571,0h-2.431q.076-.593.175-1.238t.19-1.193q.106-.638.2-1.246h-.061A12.852,12.852,0,0,1,384.464-2.1a8.81,8.81,0,0,1-1.4,1.291,6.638,6.638,0,0,1-1.6.874,4.918,4.918,0,0,1-1.755.319,4.562,4.562,0,0,1-1.755-.311,3.387,3.387,0,0,1-1.253-.874,3.668,3.668,0,0,1-.752-1.352,5.809,5.809,0,0,1-.251-1.762,4.278,4.278,0,0,1,.061-.593q.061-.4.137-.851t.175-.9q.1-.448.16-.767l1.808-8.523h2.522l-1.93,9.116q-.061.243-.122.562t-.114.638q-.053.319-.084.585a3.913,3.913,0,0,0-.03.418,2.776,2.776,0,0,0,.555,1.816,2.026,2.026,0,0,0,1.664.676,3.508,3.508,0,0,0,1.337-.273,6.083,6.083,0,0,0,1.3-.737,8.176,8.176,0,0,0,1.193-1.079,10.521,10.521,0,0,0,1.018-1.307,9.487,9.487,0,0,0,.775-1.421,7.833,7.833,0,0,0,.471-1.4l1.626-7.6h2.507Zm13.719-9.025h-3.92L396.4-5.2q-.091.471-.182,1.018a5.626,5.626,0,0,0-.091.881,1.535,1.535,0,0,0,.342,1.117,1.486,1.486,0,0,0,1.086.342,2.388,2.388,0,0,0,.471-.061q.289-.061.593-.152t.6-.205q.3-.114.524-.205L399.27-.273a7.367,7.367,0,0,1-1.208.387,5.6,5.6,0,0,1-1.284.16A4.344,4.344,0,0,1,395.3.053a2.525,2.525,0,0,1-1-.631,2.442,2.442,0,0,1-.562-1,4.587,4.587,0,0,1-.175-1.314,7.368,7.368,0,0,1,.084-1.026,10.637,10.637,0,0,1,.205-1.071l1.793-8.462h-2.583l.471-2.112h2.552l.805-3.8a4.68,4.68,0,0,1,.463-.144q.4-.114.881-.258l.881-.266.448-.137-.957,4.6h3.92ZM407.96-.061a5.822,5.822,0,0,1-.858.2,6.049,6.049,0,0,1-.95.076,3.1,3.1,0,0,1-2.294-.767,2.8,2.8,0,0,1-.76-2.059,6.278,6.278,0,0,1,.076-.9q.076-.517.243-1.276l2.264-10.772H408.2L405.924-4.725q-.137.638-.19.988a4.045,4.045,0,0,0-.053.593,1.252,1.252,0,0,0,.342.95,1.531,1.531,0,0,0,1.086.327,4.6,4.6,0,0,0,.691-.046,3.062,3.062,0,0,0,.555-.137ZM409.738-21.1a1.635,1.635,0,0,1-.463,1.17,1.521,1.521,0,0,1-1.147.486,1.615,1.615,0,0,1-1.162-.479,1.575,1.575,0,0,1-.494-1.177,1.457,1.457,0,0,1,.494-1.139,1.689,1.689,0,0,1,1.162-.441,1.593,1.593,0,0,1,1.139.448A1.5,1.5,0,0,1,409.738-21.1ZM425.159-9.8a12.949,12.949,0,0,1-.585,3.92,10.022,10.022,0,0,1-1.686,3.244,8.148,8.148,0,0,1-2.674,2.2,7.611,7.611,0,0,1-3.548.813,6.476,6.476,0,0,1-2.408-.425,5.01,5.01,0,0,1-1.823-1.223A5.418,5.418,0,0,1,411.28-3.2a7.608,7.608,0,0,1-.4-2.56,12.678,12.678,0,0,1,.615-4A10.11,10.11,0,0,1,413.225-13a8.092,8.092,0,0,1,2.674-2.157,7.555,7.555,0,0,1,3.441-.782,6.433,6.433,0,0,1,2.393.425,5.083,5.083,0,0,1,1.831,1.223,5.538,5.538,0,0,1,1.177,1.93A7.356,7.356,0,0,1,425.159-9.8Zm-2.552.122a5.809,5.809,0,0,0-.243-1.755,3.733,3.733,0,0,0-.684-1.291,2.966,2.966,0,0,0-1.064-.805,3.361,3.361,0,0,0-1.4-.281,4.418,4.418,0,0,0-2.416.684,6.113,6.113,0,0,0-1.823,1.8,8.927,8.927,0,0,0-1.147,2.537,10.619,10.619,0,0,0-.4,2.909,5.81,5.81,0,0,0,.236,1.709,3.881,3.881,0,0,0,.668,1.307,2.886,2.886,0,0,0,1.064.828,3.374,3.374,0,0,0,1.421.289,4.482,4.482,0,0,0,2.431-.676,6.027,6.027,0,0,0,1.823-1.793,8.762,8.762,0,0,0,1.139-2.545A10.893,10.893,0,0,0,422.606-9.678Zm19.629-1.99a4.955,4.955,0,0,1-.053.623q-.053.4-.137.851t-.167.9q-.084.448-.16.767L439.911,0h-2.522l1.9-9.116q.061-.243.122-.562t.106-.638q.046-.319.076-.585a3.906,3.906,0,0,0,.03-.418,2.77,2.77,0,0,0-.555-1.823,2.019,2.019,0,0,0-1.648-.668,3.835,3.835,0,0,0-1.99.593,8.189,8.189,0,0,0-1.823,1.5,10.258,10.258,0,0,0-1.436,2.005,7.686,7.686,0,0,0-.813,2.112L429.732,0H427.21l2.4-11.106q.122-.593.243-1.238t.228-1.246q.106-.6.182-1.117t.122-.851h2.431q-.076.593-.182,1.238t-.182,1.193q-.091.638-.2,1.246h.061a12.848,12.848,0,0,1,1.177-1.572,8.811,8.811,0,0,1,1.4-1.291,6.638,6.638,0,0,1,1.6-.874,4.959,4.959,0,0,1,1.77-.319,4.593,4.593,0,0,1,1.778.311,3.329,3.329,0,0,1,1.238.874A3.557,3.557,0,0,1,442-13.4,6.044,6.044,0,0,1,442.236-11.668Zm12.61-1.155a6.475,6.475,0,0,0-1.534-.714,5.533,5.533,0,0,0-1.7-.273,3.356,3.356,0,0,0-2.211.653,2.144,2.144,0,0,0-.782,1.732,2.17,2.17,0,0,0,.144.805,2.431,2.431,0,0,0,.425.691,3.861,3.861,0,0,0,.714.631q.433.3,1,.653a7.832,7.832,0,0,1,2.454,2.028,3.909,3.909,0,0,1,.752,2.347,4.736,4.736,0,0,1-.327,1.724,3.884,3.884,0,0,1-1.041,1.489,5.337,5.337,0,0,1-1.846,1.041,8.423,8.423,0,0,1-2.758.4,9.136,9.136,0,0,1-1-.061,10.621,10.621,0,0,1-1.1-.182,9.611,9.611,0,0,1-1.064-.3,4.682,4.682,0,0,1-.889-.4l.5-2.37a5.234,5.234,0,0,0,.752.425,7.778,7.778,0,0,0,.972.38,9.088,9.088,0,0,0,1.094.273,6.157,6.157,0,0,0,1.132.106,3.566,3.566,0,0,0,2.271-.608,2.048,2.048,0,0,0,.752-1.686,2.247,2.247,0,0,0-.114-.729,2.046,2.046,0,0,0-.4-.668,4.468,4.468,0,0,0-.76-.676q-.471-.342-1.185-.767A7.675,7.675,0,0,1,446.8-8.85a3.873,3.873,0,0,1-.737-2.317,4.73,4.73,0,0,1,.349-1.8,4.356,4.356,0,0,1,1.041-1.519,5.062,5.062,0,0,1,1.74-1.056,6.921,6.921,0,0,1,2.446-.4,9.758,9.758,0,0,1,2.074.213,7.363,7.363,0,0,1,1.664.547Z"
              transform="translate(694.209 309.858)"/>
    </g>
</svg>
